name C:\Users\u0101727\Documents\MyRepositories\upper-imu-dc\OpenSim\subject0\MA\MA_Splines\angle_in_n3_dof9_0.mot
datacolumns 10
datarows 42
range 0.01000000 0.42000000
endheader 
time	clav_prot	clav_elev	scapula_abduction	scapula_elevation	scapula_upward_rot	scapula_winging	plane_elv	shoulder_elv	axial_rot	
          0.01000000	        -44.34577705	         -7.65248351	        -30.88730313	         -7.82036939	          8.23102828	        -12.40251587	        -38.88248977	          3.42008115	        -37.11132463	
          0.02000000	        -30.62585626	         -7.65248351	        -30.88730313	         -7.82036939	          8.23102828	        -12.40251587	        -38.88248977	          3.42008115	        -37.11132463	
          0.03000000	        -16.90593547	         -7.65248351	        -30.88730313	         -7.82036939	          8.23102828	        -12.40251587	        -38.88248977	          3.42008115	        -37.11132463	
          0.04000000	        -44.34577705	          4.60560848	        -30.88730313	         -7.82036939	          8.23102828	        -12.40251587	        -38.88248977	          3.42008115	        -37.11132463	
          0.05000000	        -30.62585626	          4.60560848	        -30.88730313	         -7.82036939	          8.23102828	        -12.40251587	        -38.88248977	          3.42008115	        -37.11132463	
          0.06000000	        -16.90593547	          4.60560848	        -30.88730313	         -7.82036939	          8.23102828	        -12.40251587	        -38.88248977	          3.42008115	        -37.11132463	
          0.07000000	        -44.34577705	         16.86370047	        -30.88730313	         -7.82036939	          8.23102828	        -12.40251587	        -38.88248977	          3.42008115	        -37.11132463	
          0.08000000	        -30.62585626	         16.86370047	        -30.88730313	         -7.82036939	          8.23102828	        -12.40251587	        -38.88248977	          3.42008115	        -37.11132463	
          0.09000000	        -16.90593547	         16.86370047	        -30.88730313	         -7.82036939	          8.23102828	        -12.40251587	        -38.88248977	          3.42008115	        -37.11132463	
          0.10000000	        -44.34577705	         -7.65248351	         -9.79969714	         -7.82036939	          8.23102828	        -12.40251587	        -38.88248977	          3.42008115	        -37.11132463	
          0.11000000	        -30.62585626	         -7.65248351	         -9.79969714	         -7.82036939	          8.23102828	        -12.40251587	        -38.88248977	          3.42008115	        -37.11132463	
          0.12000000	        -16.90593547	         -7.65248351	         -9.79969714	         -7.82036939	          8.23102828	        -12.40251587	        -38.88248977	          3.42008115	        -37.11132463	
          0.13000000	        -44.34577705	          4.60560848	         -9.79969714	         -7.82036939	          8.23102828	        -12.40251587	        -38.88248977	          3.42008115	        -37.11132463	
          0.14000000	        -30.62585626	          4.60560848	         -9.79969714	         -7.82036939	          8.23102828	        -12.40251587	        -38.88248977	          3.42008115	        -37.11132463	
          0.15000000	        -16.90593547	          4.60560848	         -9.79969714	         -7.82036939	          8.23102828	        -12.40251587	        -38.88248977	          3.42008115	        -37.11132463	
          0.16000000	        -44.34577705	         16.86370047	         -9.79969714	         -7.82036939	          8.23102828	        -12.40251587	        -38.88248977	          3.42008115	        -37.11132463	
          0.17000000	        -30.62585626	         16.86370047	         -9.79969714	         -7.82036939	          8.23102828	        -12.40251587	        -38.88248977	          3.42008115	        -37.11132463	
          0.18000000	        -16.90593547	         16.86370047	         -9.79969714	         -7.82036939	          8.23102828	        -12.40251587	        -38.88248977	          3.42008115	        -37.11132463	
          0.19000000	        -44.34577705	         -7.65248351	         11.28790885	         -7.82036939	          8.23102828	        -12.40251587	        -38.88248977	          3.42008115	        -37.11132463	
          0.20000000	        -30.62585626	         -7.65248351	         11.28790885	         -7.82036939	          8.23102828	        -12.40251587	        -38.88248977	          3.42008115	        -37.11132463	
          0.21000000	        -16.90593547	         -7.65248351	         11.28790885	         -7.82036939	          8.23102828	        -12.40251587	        -38.88248977	          3.42008115	        -37.11132463	
          0.22000000	        -44.34577705	          4.60560848	         11.28790885	         -7.82036939	          8.23102828	        -12.40251587	        -38.88248977	          3.42008115	        -37.11132463	
          0.23000000	        -30.62585626	          4.60560848	         11.28790885	         -7.82036939	          8.23102828	        -12.40251587	        -38.88248977	          3.42008115	        -37.11132463	
          0.24000000	        -16.90593547	          4.60560848	         11.28790885	         -7.82036939	          8.23102828	        -12.40251587	        -38.88248977	          3.42008115	        -37.11132463	
          0.25000000	        -44.34577705	         16.86370047	         11.28790885	         -7.82036939	          8.23102828	        -12.40251587	        -38.88248977	          3.42008115	        -37.11132463	
          0.26000000	        -30.62585626	         16.86370047	         11.28790885	         -7.82036939	          8.23102828	        -12.40251587	        -38.88248977	          3.42008115	        -37.11132463	
          0.27000000	        -16.90593547	         16.86370047	         11.28790885	         -7.82036939	          8.23102828	        -12.40251587	        -38.88248977	          3.42008115	        -37.11132463	
          0.28000000	        -44.34577705	         -7.65248351	        -30.88730313	         -0.36668095	          8.23102828	        -12.40251587	        -38.88248977	          3.42008115	        -37.11132463	
          0.29000000	        -30.62585626	         -7.65248351	        -30.88730313	         -0.36668095	          8.23102828	        -12.40251587	        -38.88248977	          3.42008115	        -37.11132463	
          0.30000000	        -16.90593547	         -7.65248351	        -30.88730313	         -0.36668095	          8.23102828	        -12.40251587	        -38.88248977	          3.42008115	        -37.11132463	
          0.31000000	        -44.34577705	          4.60560848	        -30.88730313	         -0.36668095	          8.23102828	        -12.40251587	        -38.88248977	          3.42008115	        -37.11132463	
          0.32000000	        -30.62585626	          4.60560848	        -30.88730313	         -0.36668095	          8.23102828	        -12.40251587	        -38.88248977	          3.42008115	        -37.11132463	
          0.33000000	        -16.90593547	          4.60560848	        -30.88730313	         -0.36668095	          8.23102828	        -12.40251587	        -38.88248977	          3.42008115	        -37.11132463	
          0.34000000	        -44.34577705	         16.86370047	        -30.88730313	         -0.36668095	          8.23102828	        -12.40251587	        -38.88248977	          3.42008115	        -37.11132463	
          0.35000000	        -30.62585626	         16.86370047	        -30.88730313	         -0.36668095	          8.23102828	        -12.40251587	        -38.88248977	          3.42008115	        -37.11132463	
          0.36000000	        -16.90593547	         16.86370047	        -30.88730313	         -0.36668095	          8.23102828	        -12.40251587	        -38.88248977	          3.42008115	        -37.11132463	
          0.37000000	        -44.34577705	         -7.65248351	         -9.79969714	         -0.36668095	          8.23102828	        -12.40251587	        -38.88248977	          3.42008115	        -37.11132463	
          0.38000000	        -30.62585626	         -7.65248351	         -9.79969714	         -0.36668095	          8.23102828	        -12.40251587	        -38.88248977	          3.42008115	        -37.11132463	
          0.39000000	        -16.90593547	         -7.65248351	         -9.79969714	         -0.36668095	          8.23102828	        -12.40251587	        -38.88248977	          3.42008115	        -37.11132463	
          0.40000000	        -44.34577705	          4.60560848	         -9.79969714	         -0.36668095	          8.23102828	        -12.40251587	        -38.88248977	          3.42008115	        -37.11132463	
          0.41000000	        -30.62585626	          4.60560848	         -9.79969714	         -0.36668095	          8.23102828	        -12.40251587	        -38.88248977	          3.42008115	        -37.11132463	
          0.42000000	        -16.90593547	          4.60560848	         -9.79969714	         -0.36668095	          8.23102828	        -12.40251587	        -38.88248977	          3.42008115	        -37.11132463	
